<?xml version="1.0" standalone="no"?>
<!DOCTYPE svg PUBLIC "-//W3C//DTD SVG 20010904//EN"
 "http://www.w3.org/TR/2001/REC-SVG-20010904/DTD/svg10.dtd">
<svg version="1.0" xmlns="http://www.w3.org/2000/svg"
 width="256.000000pt" height="256.000000pt" viewBox="0 0 256.000000 256.000000"
 preserveAspectRatio="xMidYMid meet">
<metadata>
Created by potrace 1.16, written by Peter Selinger 2001-2019
</metadata>
<g transform="translate(0.000000,256.000000) scale(0.100000,-0.100000)"
fill="#000000" stroke="none">
<path d="M0 1280 l0 -1280 1280 0 1280 0 0 1280 0 1280 -1280 0 -1280 0 0
-1280z m1322 494 c38 -27 38 -27 38 -95 l0 -69 110 0 110 0 0 -70 0 -70 -110
0 -110 0 0 -190 0 -190 110 0 110 0 0 -70 0 -70 -110 0 -110 0 0 -68 c0 -68
-1 -69 -39 -100 l-39 -31 -41 30 -41 31 0 69 0 69 -110 0 -110 0 0 70 0 70
110 0 110 0 0 190 0 190 -110 0 -110 0 0 70 0 70 110 0 110 0 0 64 c0 61 2 66
35 95 20 17 39 31 42 31 4 0 24 -12 45 -26z m-499 -74 l-2 -51 42 24 c23 12
54 31 70 41 l27 18 2 -133 c2 -151 -3 -762 -7 -767 -1 -1 -26 13 -56 33 -29
19 -58 35 -64 35 -6 0 -12 -21 -14 -47 -1 -26 -4 -49 -7 -52 -2 -2 -4 207 -4
466 0 392 3 483 14 483 1 0 0 -23 -1 -50z m840 -7 c20 -13 37 -20 37 -17 0 4
7 1 15 -6 8 -7 15 -9 15 -4 0 5 5 2 10 -6 12 -18 14 -763 2 -756 -5 3 -35 -13
-68 -35 -32 -21 -62 -39 -66 -39 -5 0 -8 203 -8 451 0 357 3 449 13 443 6 -4
29 -18 50 -31z m782 -1392 c-7 -6 -65 50 -65 63 0 5 16 -5 35 -24 19 -18 32
-36 30 -39z m-80 -81 l-65 -65 -32 33 -33 32 65 65 64 65 33 -32 33 -32 -65
-66z m-80 -79 c-7 -6 -65 50 -65 63 0 5 16 -5 35 -24 19 -18 32 -36 30 -39z"/>
<path d="M2327 289 c-31 -24 -61 -75 -52 -89 12 -19 38 -9 76 29 63 63 44 110
-24 60z"/>
</g>
</svg>
